<svg width="234" height="44" viewBox="0 0 234 44" fill="none" xmlns="http://www.w3.org/2000/svg">
<g id="logo">
<path id="Fill 1" fill-rule="evenodd" clip-rule="evenodd" d="M85.5319 22.8897C85.0627 22.4311 84.485 22.0006 83.8025 21.6152C83.1137 21.2286 82.3476 20.7957 81.4953 20.3212C81.0349 20.0554 80.5433 19.7858 80.0092 19.5175C79.4801 19.248 78.9823 18.9687 78.5256 18.6711C78.0689 18.3699 77.6896 18.0333 77.3863 17.665C77.0806 17.2905 76.9284 16.8527 76.9284 16.3441C76.9284 15.3026 77.2379 14.5489 77.8642 14.0879C78.4894 13.6269 79.3516 13.3964 80.4459 13.3964C81.2383 13.3964 82.0107 13.6159 82.7593 14.0452C83.5043 14.4794 84.1394 14.9623 84.6535 15.4965L86.5751 13.2134C85.9637 12.5329 85.1364 11.8841 84.0807 11.2731C83.0313 10.6584 81.7736 10.3571 80.3099 10.3571C78.1799 10.3571 76.5079 10.8925 75.3038 11.9621C74.0959 13.0354 73.4945 14.4916 73.4945 16.3417C73.4945 17.2332 73.6342 17.9894 73.9063 18.6199C74.1808 19.2443 74.5601 19.8054 75.0492 20.2981C75.5359 20.7859 76.1248 21.2408 76.8086 21.6616C77.4899 22.0775 78.2473 22.5202 79.0621 22.9995C79.7022 23.3885 80.3037 23.7276 80.8702 24.0288C81.4342 24.3227 81.9108 24.6154 82.3089 24.8959C82.7057 25.1801 83.0126 25.507 83.246 25.8582C83.4731 26.218 83.5879 26.6461 83.5879 27.1534C83.5879 28.3755 83.251 29.1853 82.5809 29.5877C81.9108 29.9914 80.9638 30.1927 79.7447 30.1927C78.9511 30.1927 78.0976 29.9987 77.1867 29.6097C76.2708 29.2231 75.4024 28.4828 74.5838 27.3803L72.4775 29.6097C73.3585 30.7403 74.3842 31.6171 75.5409 32.2282C76.7001 32.8355 78.0851 33.1429 79.7022 33.1429C81.8048 33.1429 83.5392 32.6294 84.9118 31.6013C86.2856 30.5756 86.9731 28.9609 86.9731 26.7571C86.9731 25.8643 86.8496 25.1143 86.61 24.5032C86.3617 23.8886 86.0048 23.3544 85.5319 22.8897Z" fill="#062436"/>
<path id="Fill 3" fill-rule="evenodd" clip-rule="evenodd" d="M106.191 26.2829C106.191 27.7526 105.779 28.848 104.973 29.5678C104.161 30.2901 103.035 30.6481 101.602 30.6481C100.166 30.6481 98.996 30.1871 98.0941 29.2688C97.1884 28.3543 96.7336 27.1534 96.7336 25.6837V18.4117C96.7336 16.9998 97.1884 15.8353 98.0941 14.9133C98.996 13.9938 100.153 13.534 101.555 13.534C103.023 13.534 104.161 13.8933 104.973 14.6168C105.779 15.3366 106.191 16.4194 106.191 17.8603V26.2829ZM102.545 10.3571C101.267 10.3571 100.091 10.6549 99.0126 11.2515C97.9408 11.852 97.0887 12.6899 96.4653 13.7626L96.137 10.8156H93.186V43.5H96.7911V31.0639C97.3813 32.0764 98.1848 32.7886 99.1991 33.2044C100.213 33.6227 101.297 33.8275 102.45 33.8275C104.855 33.8275 106.67 33.178 107.904 31.8704C109.135 30.569 109.752 28.7048 109.752 26.2829V17.7673C109.752 15.2813 109.163 13.4235 107.997 12.1937C106.824 10.9676 105.012 10.3571 102.545 10.3571Z" fill="#062436"/>
<path id="Fill 5" fill-rule="evenodd" clip-rule="evenodd" d="M125.061 25.7993C125.061 26.4249 124.95 27.0029 124.731 27.521C124.506 28.0452 124.189 28.4997 123.794 28.8846C123.394 29.2756 122.934 29.5811 122.415 29.8034C121.898 30.0295 121.34 30.137 120.752 30.137C119.745 30.137 118.906 29.9293 118.257 29.5139C117.608 29.0972 117.282 28.3824 117.282 27.367V23.7405L125.061 22.0848V25.7993ZM121.76 10.3571C121.197 10.3571 120.581 10.4378 119.895 10.5991C119.216 10.7665 118.544 10.9791 117.873 11.2271C117.208 11.4849 116.57 11.7672 115.96 12.0824C115.35 12.3904 114.84 12.7019 114.426 13.0025L115.673 15.6394C116.027 15.4023 116.456 15.1518 116.965 14.8781C117.463 14.6105 117.99 14.3649 118.544 14.1425C119.084 13.9165 119.626 13.743 120.14 13.6086C120.658 13.4693 121.114 13.4021 121.499 13.4021C122.857 13.4021 123.795 13.6697 124.321 14.211C124.837 14.7449 125.097 15.7151 125.097 17.1178V19.4492L113.894 21.8196V27.4574C113.894 29.3672 114.442 30.7919 115.542 31.7304C116.637 32.6724 118.138 33.1429 120.029 33.1429C121.244 33.1429 122.303 32.8215 123.202 32.1763C124.11 31.5397 124.837 30.7406 125.4 29.7863L125.623 32.7396H128.389V17.1178C128.389 14.7877 127.863 13.0795 126.809 11.9896C125.755 10.9009 124.076 10.3571 121.76 10.3571Z" fill="#062436"/>
<path id="Fill 7" fill-rule="evenodd" clip-rule="evenodd" d="M137.111 14.6475C137.861 13.8731 138.88 13.4889 140.169 13.4889C141.062 13.4889 141.895 13.7182 142.679 14.1779C143.458 14.6377 144.126 15.2462 144.677 15.9877L147.027 13.756C145.307 11.4913 143.024 10.3571 140.169 10.3571C139.033 10.3571 138 10.5376 137.064 10.8937C136.129 11.2511 135.324 11.7547 134.652 12.4133C133.971 13.0682 133.453 13.8401 133.086 14.7365C132.716 15.6267 132.531 16.6133 132.531 17.6816V25.9049C132.531 28.2001 133.227 29.9794 134.626 31.2428C136.018 32.5124 137.901 33.1429 140.263 33.1429C141.487 33.1429 142.679 32.9209 143.824 32.4709C144.977 32.0221 145.984 31.3258 146.838 30.3696L144.677 28.0916C144.156 28.7489 143.507 29.2294 142.722 29.544C141.942 29.8574 141.153 30.016 140.356 30.016C138.976 30.016 137.901 29.6635 137.133 28.9672C136.364 28.2672 135.983 27.2452 135.983 25.9049V17.6841C135.983 16.4353 136.361 15.4243 137.111 14.6475Z" fill="#062436"/>
<path id="Fill 9" fill-rule="evenodd" clip-rule="evenodd" d="M154.781 17.6841C154.781 16.4048 155.238 15.3816 156.149 14.6279C157.07 13.8682 158.2 13.4889 159.549 13.4889C160.865 13.4889 161.837 13.7974 162.458 14.4231C163.086 15.0499 163.498 15.9548 163.684 17.1511L163.788 19.0707L154.781 20.5902V17.6841ZM163.035 29.5648C162.191 29.866 161.279 30.0148 160.32 30.0148C158.685 30.0148 157.35 29.6026 156.321 28.7867C155.296 27.9672 154.781 26.7989 154.781 25.2793V23.0854L167.397 20.989V17.6816C167.397 16.5828 167.206 15.5731 166.819 14.6645C166.431 13.7596 165.897 12.9828 165.205 12.3425C164.516 11.7072 163.684 11.212 162.726 10.8693C161.762 10.5303 160.706 10.3571 159.549 10.3571C158.328 10.3571 157.208 10.5303 156.173 10.8693C155.153 11.212 154.267 11.6937 153.523 12.3206C152.789 12.9474 152.212 13.7096 151.792 14.6218C151.375 15.5304 151.168 16.5511 151.168 17.6816V25.2805C151.168 27.872 151.97 29.8306 153.573 31.1575C155.184 32.4807 157.382 33.1429 160.173 33.1429C161.653 33.1429 163.006 32.927 164.242 32.4965C165.478 32.0611 166.64 31.3258 167.735 30.2806L165.713 27.9159C164.783 28.7172 163.891 29.2672 163.035 29.5648Z" fill="#062436"/>
<path id="Fill 11" fill-rule="evenodd" clip-rule="evenodd" d="M187.761 28.6419L183.963 10.3571H180.492L176.791 28.7319L173.414 10.3571H169.805L174.941 33.1429H178.641L182.297 15.9257L185.957 33.1429H189.564L194.655 10.3571H191.088L187.761 28.6419Z" fill="#062436"/>
<path id="Fill 13" fill-rule="evenodd" clip-rule="evenodd" d="M200.342 17.6841C200.342 16.4048 200.796 15.3816 201.711 14.6279C202.631 13.8682 203.761 13.4889 205.108 13.4889C206.422 13.4889 207.392 13.7974 208.018 14.4231C208.643 15.0499 209.056 15.9548 209.244 17.1511L209.343 19.0707L200.342 20.5902V17.6841ZM208.599 29.5648C207.748 29.866 206.845 30.0148 205.879 30.0148C204.242 30.0148 202.908 29.6026 201.878 28.7867C200.854 27.9672 200.342 26.7989 200.342 25.2793V23.0854L212.956 20.989V17.6816C212.956 16.5828 212.761 15.5731 212.38 14.6645C211.997 13.7596 211.455 12.9828 210.762 12.3425C210.073 11.7072 209.244 11.212 208.285 10.8693C207.324 10.5303 206.263 10.3571 205.108 10.3571C203.887 10.3571 202.765 10.5303 201.738 10.8693C200.71 11.212 199.825 11.6937 199.09 12.3206C198.35 12.9474 197.769 13.7096 197.354 14.6218C196.935 15.5304 196.726 16.5511 196.726 17.6816V25.2805C196.726 27.872 197.531 29.8306 199.136 31.1575C200.742 32.4807 202.942 33.1429 205.734 33.1429C207.208 33.1429 208.568 32.927 209.804 32.4965C211.038 32.0611 212.205 31.3258 213.292 30.2806L211.271 27.9159C210.339 28.7172 209.452 29.2672 208.599 29.5648Z" fill="#062436"/>
<path id="Fill 15" fill-rule="evenodd" clip-rule="evenodd" d="M230.471 25.8349C230.471 27.1976 230.056 28.2296 229.221 28.9209C228.385 29.6159 227.276 29.9665 225.879 29.9665C224.369 29.9665 223.176 29.4932 222.313 28.5591C221.447 27.6213 221.013 26.4122 221.013 24.9305V18.3015C221.013 17.6387 221.135 16.9957 221.362 16.3763C221.592 15.7544 221.924 15.2106 222.355 14.741C222.792 14.2715 223.298 13.9036 223.892 13.631C224.477 13.356 225.105 13.221 225.789 13.221C227.276 13.221 228.424 13.5641 229.241 14.243C230.062 14.9207 230.471 15.991 230.471 17.4405V25.8349ZM232.171 11.8781C230.951 10.6219 229.134 9.99749 226.721 9.99749C225.545 9.99749 224.466 10.2688 223.47 10.8114C222.484 11.3553 221.661 12.0849 221.013 12.9955V0H217.433V32.6894H220.595L220.783 30.0507C221.434 31.178 222.256 31.9697 223.264 32.4392C224.267 32.9087 225.404 33.1429 226.674 33.1429C229.052 33.1429 230.871 32.5172 232.126 31.2586C233.374 30.0011 234 28.1974 234 25.8399V17.3042C234 14.9405 233.395 13.1367 232.171 11.8781Z" fill="#062436"/>
<path id="Fill 17" fill-rule="evenodd" clip-rule="evenodd" d="M30.0283 33.1429C29.453 33.1429 28.9915 33.6088 28.9915 34.1776C28.9915 34.7503 29.453 35.2143 30.0283 35.2143C30.5978 35.2143 31.0623 34.7503 31.0623 34.1776C31.0623 33.6088 30.5978 33.1429 30.0283 33.1429Z" fill="#36BDF7"/>
<g id="Group 21">
<mask id="mask0" mask-type="alpha" maskUnits="userSpaceOnUse" x="0" y="5" width="62" height="34">
<path id="Clip 20" fill-rule="evenodd" clip-rule="evenodd" d="M0 5.15329H61.6529V38.8355H0V5.15329Z" fill="white"/>
</mask>
<g mask="url(#mask0)">
<path id="Fill 19" fill-rule="evenodd" clip-rule="evenodd" d="M37.0348 28.3504C34.2752 28.3504 32.0437 26.1622 32.0437 23.4653C32.0437 20.7659 34.2752 18.5875 37.0348 18.5875C39.7931 18.5875 42.0283 20.7659 42.0283 23.4653C42.0283 26.1622 39.7931 28.3504 37.0348 28.3504ZM24.354 28.3504C21.5932 28.3504 19.3568 26.1622 19.3568 23.4653C19.3568 20.7659 21.5932 18.5875 24.354 18.5875C27.1123 18.5875 29.3438 20.7659 29.3438 23.4653C29.3438 26.1622 27.1123 28.3504 24.354 28.3504ZM58.0215 12.8658C56.6088 10.6813 55.0345 9.16223 53.5933 7.92366C52.4601 6.96194 51.4053 6.1678 50.3703 5.4113C49.8845 5.05794 49.2135 5.05794 48.7799 5.4708C48.2419 5.98201 47.6803 6.51144 47.0454 7.11009C46.126 7.98559 45.0413 9.00801 43.7131 10.2417C42.6296 11.2447 41.3834 12.3947 40.1087 13.5652C39.6614 13.9805 39.019 14.0959 38.4114 13.989C37.856 13.8882 37.287 13.8372 36.7043 13.8372C34.7623 13.8372 32.9632 14.4104 31.4635 15.3915C30.9814 15.7072 30.3453 15.7072 29.8644 15.3915C28.366 14.4104 26.5669 13.8372 24.6261 13.8372C24.149 13.8372 23.6856 13.8749 23.2283 13.9453C22.6121 14.0364 21.9436 13.9356 21.4901 13.5118C20.2315 12.357 19.0064 11.2302 17.9379 10.2417C16.6097 9.00801 15.5324 7.98559 14.6068 7.11009C13.9719 6.51144 13.4115 5.98201 12.8711 5.4708C12.4424 5.05794 11.769 5.05794 11.2819 5.4113C10.2457 6.1678 9.19208 6.96194 8.06266 7.92366C6.61394 9.16223 5.04344 10.6813 3.63323 12.8658C2.22178 15.0479 0.973086 17.8917 0.395334 20.7089C-0.186146 23.5272 -0.0917175 26.3237 0.45373 28.7377C0.999178 31.1578 1.99192 33.2051 3.12754 35.1467C4.25571 37.0908 5.53049 38.9256 5.69947 38.8321C5.86224 38.7337 4.93411 36.6974 4.1911 34.6999C3.45307 32.7036 2.90762 30.7389 2.65664 28.8324C2.40069 26.9321 2.44666 25.0876 2.95608 22.9674C3.4655 20.8473 4.44954 18.4612 5.55162 16.6386C6.64872 14.8147 7.86511 13.5567 8.98458 12.5355C9.81953 11.7693 10.606 11.1391 11.3776 10.5429C11.8199 10.1968 12.4586 10.2879 12.845 10.6983L12.9618 10.8234L17.4707 15.6089C17.8658 16.0242 17.8186 16.6653 17.4409 17.0939C17.0781 17.5189 16.7501 17.967 16.468 18.4467C16.191 18.9129 15.5871 19.0999 15.11 18.8304L12.0709 17.0903C11.5515 16.7904 10.8831 16.862 10.4681 17.2931C10.0134 17.7727 9.54991 18.3119 9.07528 19.0453C8.34222 20.1527 7.57686 21.7082 7.12459 23.6025C6.67854 25.4968 6.56051 27.7372 6.82764 29.7747C7.09477 31.8159 7.7595 33.6677 8.53356 35.3762C9.31011 37.0908 10.2072 38.6657 10.3699 38.6657C10.5327 38.6657 9.95744 37.0908 9.49151 35.4794C9.02931 33.8693 8.67521 32.2276 8.5609 30.6417C8.4528 29.0559 8.57829 27.5271 8.86034 26.2229C9.13617 24.9176 9.55861 23.849 9.97857 23.0391C10.1811 22.6347 10.3873 22.2923 10.5886 21.9827C10.9042 21.5139 11.5602 21.4022 12.02 21.7447L14.454 23.5491C14.987 23.9462 15.31 24.5497 15.4678 25.1823C15.4939 25.2892 15.5225 25.396 15.5511 25.4968C15.6679 25.9327 15.2964 26.3395 14.8516 26.2594L14.0017 26.1209C13.4289 26.0287 12.8586 26.3602 12.7095 26.909C12.5393 27.5174 12.3964 28.1488 12.3306 28.8094C12.2262 29.8197 12.3082 30.9283 12.4996 32.0163C12.6934 33.1067 13.004 34.1826 13.5867 35.5474C14.1744 36.9147 15.0441 38.5795 15.2131 38.6329C15.3784 38.6864 14.8391 37.1321 14.5111 35.8146C14.1744 34.4971 14.0551 33.4127 14.0166 32.5409C13.9756 31.6739 14.0203 31.0194 14.1036 30.4474C14.1322 30.2325 14.1694 30.0273 14.2092 29.8269C14.3223 29.3024 14.8975 29.0207 15.4219 29.1737L17.5639 29.7954C18.21 29.9848 18.7977 30.3078 19.3568 30.6769C20.8602 31.6739 22.6754 32.2567 24.6261 32.2567C26.5669 32.2567 28.366 31.6824 29.8644 30.6988C30.3453 30.3819 30.9814 30.3819 31.4635 30.6988C32.9632 31.6824 34.7623 32.2567 36.7043 32.2567C38.5854 32.2567 40.3298 31.7164 41.8034 30.7874C42.3563 30.4341 42.944 30.1269 43.5777 29.9447L46.2254 29.1737C46.7596 29.0207 47.3324 29.3024 47.4418 29.8269C47.4803 30.0273 47.5175 30.2325 47.5523 30.4474C47.6381 31.0194 47.6803 31.6739 47.6381 32.5409C47.5958 33.4127 47.4691 34.4971 47.1411 35.8146C46.8131 37.1321 46.2751 38.6864 46.4403 38.6329C46.6068 38.5795 47.4765 36.9147 48.0618 35.5474C48.6519 34.1826 48.9563 33.1067 49.1489 32.0163C49.3403 30.9283 49.4223 29.8197 49.3241 28.8094C49.2545 28.1488 49.1141 27.5174 48.9476 26.909C48.7936 26.3602 48.2233 26.0287 47.648 26.1209L46.4614 26.3237C45.9943 26.3978 45.6576 25.9327 45.7868 25.4859C45.9595 24.8387 46.2863 24.2242 46.8317 23.8211L49.6322 21.7447C50.0858 21.4022 50.7517 21.5139 51.0611 21.9827C51.2673 22.2923 51.4674 22.6347 51.6736 23.0391C52.0899 23.849 52.5123 24.9176 52.7931 26.2229C53.0689 27.5271 53.2019 29.0559 53.0925 30.6417C52.9832 32.2276 52.6254 33.8693 52.1607 35.4794C51.696 37.0908 51.122 38.6657 51.2798 38.6657C51.4413 38.6657 52.3371 37.0908 53.1162 35.3762C53.8952 33.6677 54.5574 31.8159 54.8283 29.7747C55.0942 27.7372 54.9699 25.4968 54.5251 23.6025C54.0791 21.7082 53.3087 20.1527 52.5782 19.0453C52.1023 18.3119 51.6364 17.7727 51.1816 17.2931C50.7704 16.862 50.0994 16.7904 49.5763 17.0903L46.2838 18.9712C45.8091 19.2469 45.2065 19.0368 44.9369 18.562C44.6685 18.0897 44.3517 17.6428 44.0001 17.2227C43.6447 16.7904 43.6522 16.1699 44.0361 15.7631L48.6892 10.8234L48.8097 10.6983C49.1961 10.2879 49.8298 10.1968 50.2771 10.5429C51.0437 11.1391 51.8302 11.7693 52.6676 12.5355C53.7859 13.5567 55.0022 14.8147 56.0993 16.6386C57.1989 18.4612 58.183 20.8473 58.6936 22.9674C59.2093 25.0876 59.2465 26.9321 58.9956 28.8324C58.7433 30.7389 58.1991 32.7036 57.4599 34.6999C56.7181 36.6974 55.7862 38.7337 55.9527 38.8321C56.1217 38.9256 57.3915 37.0908 58.5271 35.1467C59.659 33.2051 60.6568 31.1578 61.2034 28.7377C61.7439 26.3237 61.8384 23.5272 61.2594 20.7089C60.6816 17.8917 59.4342 15.0479 58.0215 12.8658Z" fill="#3DBDF6"/>
</g>
</g>
<path id="Fill 22" fill-rule="evenodd" clip-rule="evenodd" d="M25.8821 22.7857C25.3115 22.7857 24.8496 23.2512 24.8496 23.8214C24.8496 24.3926 25.3115 24.8571 25.8821 24.8571C26.4566 24.8571 26.9204 24.3926 26.9204 23.8214C26.9204 23.2512 26.4566 22.7857 25.8821 22.7857Z" fill="#36BDF7"/>
<path id="Fill 24" fill-rule="evenodd" clip-rule="evenodd" d="M38.3103 22.7857C37.738 22.7857 37.2744 23.2512 37.2744 23.8214C37.2744 24.3926 37.738 24.8571 38.3103 24.8571C38.8835 24.8571 39.3452 24.3926 39.3452 23.8214C39.3452 23.2512 38.8835 22.7857 38.3103 22.7857Z" fill="#36BDF7"/>
</g>
</svg>
